<!-- icon666.com - MILLIONS OF FREE VECTOR ICONS --><svg viewBox="0 0 448 448" xmlns="http://www.w3.org/2000/svg"><path d="m192 176h64v16h-64zm0 0"></path><path d="m208 208h32v128h-32zm0 0"></path><path d="m400 229.601562v-21.601562h-32v16c10.910156.023438 21.730469 1.917969 32 5.601562zm0 0"></path><path d="m48 208h32v128h-32zm0 0"></path><path d="m32 176h64v16h-64zm0 0"></path><path d="m352 176h64v16h-64zm0 0"></path><path d="m112 72c0-4.417969-3.582031-8-8-8h-32v16h32c4.417969 0 8-3.582031 8-8zm0 0"></path><path d="m32 352h64v16h-64zm0 0"></path><path d="m112 40c0-4.417969-3.582031-8-8-8h-32v16h32c4.417969 0 8-3.582031 8-8zm0 0"></path><path d="m0 112h448v-72c-.027344-22.082031-17.917969-39.9726562-40-40h-368c-22.082031.0273438-39.9726562 17.917969-40 40zm320-96h16v30.855469l40-12.703125v-18.152344h16v24c-.003906 3.492188-2.269531 6.578125-5.601562 7.625l-29.285157 9.304688 28.796875 7.316406c3.570313.878906 6.082032 4.078125 6.089844 7.753906v24h-16v-17.777344l-40-10.152344v27.929688h-16zm-88 8c0-3.332031 2.066406-6.3125 5.183594-7.488281 3.117187-1.171875 6.636718-.289063 8.832031 2.214843l41.984375 48v-50.726562h16v72c0 3.332031-2.066406 6.3125-5.183594 7.488281-3.117187 1.171875-6.636718.289063-8.832031-2.214843l-41.984375-47.976563v50.703125h-16zm-88 0c0-4.417969 3.582031-8 8-8h56c4.417969 0 8 3.582031 8 8v72h-16v-32h-40v32h-16zm-88 0c0-4.417969 3.582031-8 8-8h40c9.484375-.042969 18.097656 5.53125 21.945312 14.199219 3.847657 8.667969 2.207032 18.792969-4.183593 25.800781 6.390625 7.007812 8.03125 17.132812 4.183593 25.800781-3.847656 8.667969-12.460937 14.242188-21.945312 14.199219h-40c-4.417969 0-8-3.582031-8-8zm0 0"></path><path d="m192 352h64v16h-64zm0 0"></path><path d="m352 304c0 4.417969 3.582031 8 8 8v-16c-4.417969 0-8 3.582031-8 8zm0 0"></path><path d="m376 344c4.417969 0 8-3.582031 8-8s-3.582031-8-8-8zm0 0"></path><path d="m368 264c-30.929688 0-56 25.070312-56 56s25.070312 56 56 56 56-25.070312 56-56c-.035156-30.914062-25.085938-55.964844-56-56zm32 72c0 13.253906-10.746094 24-24 24v8h-16v-8c-13.253906 0-24-10.746094-24-24h16c0 4.417969 3.582031 8 8 8v-16c-13.253906 0-24-10.746094-24-24s10.746094-24 24-24v-8h16v8c13.253906 0 24 10.746094 24 24h-16c0-4.417969-3.582031-8-8-8v16c13.253906 0 24 10.746094 24 24zm0 0"></path><path d="m368 240c-44.183594 0-80 35.816406-80 80s35.816406 80 80 80 80-35.816406 80-80c-.046875-44.164062-35.835938-79.953125-80-80zm0 152c-39.765625 0-72-32.234375-72-72s32.234375-72 72-72 72 32.234375 72 72c-.046875 39.746094-32.253906 71.953125-72 72zm0 0"></path><path d="m420.953125 400h11.046875v-8.648438c-3.46875 3.148438-7.160156 6.039063-11.046875 8.648438zm0 0"></path><path d="m16 128h416v32h-416zm0 0"></path><path d="m160 32h40v16h-40zm0 0"></path><path d="m296.648438 384h-280.648438v16h299.046875c-6.78125-4.535156-12.964844-9.910156-18.398437-16zm0 0"></path><path d="m8 448h432c4.417969 0 8-3.582031 8-8v-24h-448v24c0 4.417969 3.582031 8 8 8zm0 0"></path></svg>