<!-- icon666.com - MILLIONS OF FREE VECTOR ICONS --><svg id="Layer_1" enable-background="new 0 0 68 68" viewBox="0 0 68 68" xmlns="http://www.w3.org/2000/svg"><g><g><g><g><path d="m8.560606 50.8250809-5.3928156-31.8215905c-.4474683-2.6403923 1.330256-5.1435995 3.9706583-5.5910683l47.8087101-8.1021461c2.6404037-.4474692 5.1436157 1.3302469 5.5910873 3.9706392l5.3928146 31.8215904c.447464 2.6403923-1.3302536 5.1436005-3.9706573 5.5910683l-47.808712 8.1021461c-2.6404037.447467-5.1436176-1.3302468-5.5910854-3.9706391z" fill="#d2dbea"></path></g></g></g><g><g><g><path d="m2 57.9095116.0001211-32.2753448c.00001-2.6780434 2.1710091-4.8490219 4.8490624-4.8490143l48.4904404.0001144c2.6780548.0000057 4.8490372 2.1709938 4.8490257 4.8490372l-.0001196 32.2753448c-.0000114 2.6780434-2.1710091 4.8490219-4.8490639 4.8490143l-48.4904404-.0001145c-2.6780529-.0000038-4.8490357-2.1709938-4.8490257-4.8490371z" fill="#e9edf4"></path></g></g><g><g><g><path d="m2 46.57h58.189v8.41h-58.189z" fill="#342c37"></path></g></g><g><g><g><g><path d="m37.8733788 27.6284618 17.348278.0000172c.6700592.0000019 1.2122612.5427971 1.2122574 1.2122612-.0000038.6694622-.5422058 1.2122536-1.212265 1.2122536l-17.348278-.0000191c-.6700592-.0000019-1.2122574-.5427952-1.2122574-1.2122593.0000038-.6694641.5422096-1.2122555 1.212265-1.2122536z" fill="#d2dbea"></path></g></g></g></g><g><g><g><g><path d="m43.9346771 33.6898994 11.2869797.0000191c.6700592.0000038 1.2122612.5427971 1.2122574 1.2122612s-.5422058 1.2122536-1.212265 1.2122536l-11.2869835-.0000191c-.6700554-.0000038-1.2122574-.5427971-1.2122536-1.2122612 0-.6694641.5422058-1.2122536 1.212265-1.2122536z" fill="#d2dbea"></path></g></g></g></g><g><g><g><path d="m8.0662861 37.8775444.0000315-8.3753986c.0000057-1.4530888 1.1779757-2.6310482 2.6310701-2.6310444l9.8123837.0000229c1.4530945.0000038 2.6310558 1.1779671 2.6310501 2.6310577l-.0000305 8.3753967c-.0000057 1.4530907-1.1779766 2.6310501-2.6310711 2.6310463l-9.8123827-.0000229c-1.4530955-.0000038-2.6310568-1.1779708-2.6310511-2.6310577z" fill="#ffc90d"></path></g></g><g><g><path d="m14.604 26.871h2v13.638h-2z" fill="#ffab02"></path></g></g><g><g><path d="m15.604 32.689h7.537v2h-7.537z" fill="#ffab02"></path></g></g><g><g><g><path d="m8.066 35.351h7.537v2h-7.537z" fill="#ffab02"></path></g></g><g><g><path d="m8.066 30.029h7.537v2h-7.537z" fill="#ffab02"></path></g></g></g></g></g></g></g></svg>