<!-- icon666.com - MILLIONS OF FREE VECTOR ICONS --><svg id="Layer_1" viewBox="0 0 512 512" xmlns="http://www.w3.org/2000/svg"><path d="m457.9 87.869h-403.8c-29.83 0-54.1 24.27-54.1 54.1v228.063c0 29.83 24.27 54.1 54.101 54.1h403.8c29.83 0 54.1-24.27 54.1-54.1v-228.063c-.001-29.83-24.271-54.1-54.101-54.1zm-403.799 32h403.8c12.186 0 22.1 9.914 22.1 22.1v31.762h-448.001v-31.762c0-12.186 9.914-22.1 22.101-22.1zm403.799 272.262h-403.8c-12.187 0-22.101-9.914-22.101-22.1v-164.301h448v164.301c.001 12.186-9.913 22.1-22.099 22.1zm-11.35-49.551c0 8.837-7.163 16-16 16h-98.4c-8.837 0-16-7.163-16-16s7.163-16 16-16h98.4c8.837 0 16 7.163 16 16z"></path></svg>