<!-- icon666.com - MILLIONS OF FREE VECTOR ICONS --><svg version="1.1" id="Capa_1" xmlns="http://www.w3.org/2000/svg" xmlns:xlink="http://www.w3.org/1999/xlink" x="0px" y="0px" viewBox="0 0 470.904 470.904" style="enable-background:new 0 0 470.904 470.904;" xml:space="preserve"><g><path d="M428.444,271.893c-6.702-4.872-16.082-3.389-20.953,3.311l-47.611,65.48l-47.611-65.48 c-4.871-6.699-14.252-8.183-20.953-3.311c-6.7,4.872-8.183,14.253-3.311,20.953l47.109,64.79h-7.461c-8.284,0-15,6.716-15,15 s6.716,15,15,15h17.228v6.524h-17.228c-8.284,0-15,6.716-15,15s6.716,15,15,15h17.228v31.744c0,8.284,6.716,15,15,15 s15-6.716,15-15V424.16h17.228c8.284,0,15-6.716,15-15s-6.716-15-15-15h-17.228v-6.524h17.228c8.284,0,15-6.716,15-15 s-6.716-15-15-15h-7.461l47.109-64.79C436.626,286.146,435.144,276.765,428.444,271.893z"></path><path d="M330.201,169.735c0-8.284-6.716-15-15-15s-15,6.716-15,15c0,27.728,19.009,51.098,44.679,57.768v7.611 c0,8.284,6.716,15,15,15s15-6.716,15-15v-7.611c25.67-6.67,44.679-30.04,44.679-57.768c0-27.728-19.009-51.097-44.679-57.767 V54.785c8.774,5.162,14.679,14.699,14.679,25.594c0,8.284,6.716,15,15,15s15-6.716,15-15c0-27.728-19.009-51.098-44.679-57.768V15 c0-8.284-6.716-15-15-15s-15,6.716-15,15v7.611c-25.67,6.67-44.679,30.04-44.679,57.768s19.009,51.098,44.679,57.768v57.183 C336.105,190.167,330.201,180.63,330.201,169.735z M389.558,169.735c0,10.895-5.905,20.432-14.679,25.594v-51.187 C383.653,149.305,389.558,158.841,389.558,169.735z M330.201,80.379c0-10.895,5.905-20.432,14.679-25.594v51.188 C336.105,100.811,330.201,91.274,330.201,80.379z"></path><path d="M201.297,413.417c-7.135-4.209-16.331-1.84-20.542,5.294c-8.079,13.689-22.956,22.193-38.826,22.193 c-22.295,0-40.849-16.288-44.412-37.587h43.234c8.284,0,15-6.716,15-15s-6.716-15-15-15H96.889v-6.706h43.862 c8.284,0,15-6.716,15-15s-6.716-15-15-15H97.517c3.563-21.299,22.117-37.587,44.412-37.587c13.633,0,26.387,6.079,34.991,16.678 c5.223,6.434,14.67,7.412,21.1,2.191c6.432-5.222,7.413-14.669,2.191-21.1c-14.328-17.648-35.571-27.77-58.282-27.77 c-38.862,0-70.914,29.696-74.668,67.587H51.281c-8.284,0-15,6.716-15,15s6.716,15,15,15h15.608v6.706H51.281 c-8.284,0-15,6.716-15,15s6.716,15,15,15h15.981c3.754,37.891,35.806,67.587,74.668,67.587c26.436,0,51.213-14.156,64.662-36.945 C210.802,426.824,208.432,417.627,201.297,413.417z"></path><path d="M58.5,225.997h116.752c8.284,0,15-6.716,15-15s-6.716-15-15-15H103.78v-44.496h34.813c8.284,0,15-6.716,15-15 s-6.716-15-15-15H103.78V87.954c0-18.658,15.179-33.837,33.837-33.837s33.837,15.179,33.837,33.837c0,8.284,6.716,15,15,15 s15-6.716,15-15c0-35.2-28.637-63.837-63.837-63.837S73.78,52.754,73.78,87.954v33.547h-9.419c-8.284,0-15,6.716-15,15 s6.716,15,15,15h9.419v44.496H58.5c-8.284,0-15,6.716-15,15S50.216,225.997,58.5,225.997z"></path></g></svg>