<!-- icon666.com - MILLIONS OF FREE VECTOR ICONS --><svg version="1.1" id="Capa_1" xmlns="http://www.w3.org/2000/svg" xmlns:xlink="http://www.w3.org/1999/xlink" x="0px" y="0px" viewBox="0 0 512 512" style="enable-background:new 0 0 512 512;" xml:space="preserve"><g><g><path d="M500.5,107h-206c-6.341,0-11.5,5.159-11.5,11.5v132c0,6.341,5.159,11.5,11.5,11.5H370v11h-14.5 c-4.142,0-7.5,3.357-7.5,7.5v24c0,4.143,3.358,7.5,7.5,7.5H390v55h-89.5v-11.5c0-4.143-3.358-7.5-7.5-7.5h-74 c-4.142,0-7.5,3.357-7.5,7.5V367H122v-55h34.5c4.142,0,7.5-3.357,7.5-7.5v-24c0-4.143-3.358-7.5-7.5-7.5H142v-11h75.5 c6.341,0,11.5-5.159,11.5-11.5v-132c0-6.341-5.159-11.5-11.5-11.5H192c-4.142,0-7.5,3.357-7.5,7.5s3.358,7.5,7.5,7.5h22v99H64 c-4.142,0-7.5,3.357-7.5,7.5s3.358,7.5,7.5,7.5h150v11H15v-11h17c4.142,0,7.5-3.357,7.5-7.5S36.142,221,32,221H15v-99h144.75 c4.142,0,7.5-3.357,7.5-7.5s-3.358-7.5-7.5-7.5H11.5C5.159,107,0,112.159,0,118.5v132c0,6.341,5.159,11.5,11.5,11.5H87v11H72.5 c-4.142,0-7.5,3.357-7.5,7.5v24c0,4.143,3.358,7.5,7.5,7.5H107v62.5c0,4.143,3.358,7.5,7.5,7.5h97v15.5c0,4.143,3.358,7.5,7.5,7.5 h74c4.142,0,7.5-3.357,7.5-7.5V382h97c4.142,0,7.5-3.357,7.5-7.5V312h34.5c4.142,0,7.5-3.357,7.5-7.5v-24 c0-4.143-3.358-7.5-7.5-7.5H425v-11h75.5c6.341,0,11.5-5.159,11.5-11.5v-132C512,112.159,506.841,107,500.5,107z M102,262h25v11 h-25V262z M80,297v-9h69v9H80z M285.5,390h-59v-27h59V390z M432,288v9h-69v-9H432z M385,273v-11h25v11H385z M497,221h-17 c-4.142,0-7.5,3.357-7.5,7.5s3.358,7.5,7.5,7.5h17v11H298v-11h149.75c4.142,0,7.5-3.357,7.5-7.5s-3.358-7.5-7.5-7.5H298v-99h199 V221z"></path></g></g></svg>