<!-- icon666.com - MILLIONS OF FREE VECTOR ICONS --><svg id="Capa_1" enable-background="new 0 0 469.333 469.333" viewBox="0 0 469.333 469.333" xmlns="http://www.w3.org/2000/svg"><g><g><path d="m430.763 64h-392.192c-21.293.024-38.547 17.278-38.571 38.571v264.192c.024 21.292 17.278 38.547 38.571 38.571h392.192c21.292-.024 38.547-17.278 38.571-38.571v-264.192c-.024-21.293-17.279-38.547-38.571-38.571zm-392.192 21.333h392.192c9.52 0 17.237 7.717 17.237 17.237v25.43h-426.667v-25.429c0-9.52 7.718-17.238 17.238-17.238zm392.192 298.667h-392.192c-9.52 0-17.237-7.717-17.237-17.237v-217.43h426.666v217.429c0 9.521-7.717 17.238-17.237 17.238z"></path><path d="m138.667 234.667h21.333c5.891 0 10.667-4.776 10.667-10.667s-4.776-10.667-10.667-10.667h-21.333c-29.455 0-53.333 23.878-53.333 53.333s23.878 53.333 53.333 53.333h21.333c5.891 0 10.667-4.776 10.667-10.667s-4.776-10.667-10.667-10.667h-21.333c-17.673 0-32-14.327-32-32 0-17.671 14.327-31.998 32-31.998z"></path><path d="m377.088 214.016c-5.514-2.074-11.665.715-13.739 6.229l-22.016 58.709-22.016-58.709c-2.075-5.513-8.227-8.301-13.74-6.226-5.511 2.074-8.299 8.222-6.228 13.735l32 85.333c2.074 5.514 8.225 8.303 13.739 6.229 2.877-1.082 5.147-3.352 6.229-6.229l32-85.333c2.074-5.513-.715-11.664-6.229-13.738z"></path><path d="m270.421 214.016c-5.514-2.074-11.665.715-13.739 6.229l-22.016 58.709-22.016-58.709c-2.075-5.513-8.227-8.301-13.74-6.226-5.511 2.074-8.299 8.222-6.228 13.735l32 85.333c2.074 5.514 8.225 8.303 13.739 6.229 2.877-1.082 5.147-3.352 6.229-6.229l32-85.333c2.074-5.513-.715-11.664-6.229-13.738z"></path></g></g></svg>