<!-- icon666.com - MILLIONS OF FREE VECTOR ICONS --><svg id="Layer_1" enable-background="new 0 0 512 512" viewBox="0 0 512 512" xmlns="http://www.w3.org/2000/svg"><g><path d="m72.8 236.9v46.7l7.5 7.5h46.7l7.5-7.5v-46.7l-7.5-7.5h-46.7zm15 7.5h31.7v31.7h-31.7z"></path><path d="m426.8 317.5h-9.9l-16.3-16.3c8.1-13.5 12.4-29 12.4-45.1 0-23.5-9.1-45.6-25.7-62.2-.2-.2-.4-.3-.5-.5v-49.7c0-36.6-29.8-66.3-66.3-66.3h-245.5c-36.6 0-66.3 29.8-66.3 66.3v116c0 36.6 29.8 66.3 66.3 66.3h136.3v-15h-136.3c-28.3 0-51.3-23-51.3-51.3v-50.5h227.1c-8.8 13.9-13.5 30-13.5 46.8 0 23.5 9.1 45.6 25.7 62.2s38.7 25.7 62.2 25.7c16.1 0 31.6-4.3 45.1-12.4l16.3 16.3v9.9l76.6 76.6h10.6l29.7-29.7v-10.6zm-351.8-225h245.4c25.6 0 46.9 18.9 50.7 43.4h-346.9c3.8-24.5 25.1-43.4 50.8-43.4zm-51.4 101.9v-43.4h348.1v30.7c-13.8-8.7-29.9-13.4-46.6-13.4-23.5 0-45.6 9.1-62.2 25.7-.1.1-.2.2-.3.3h-239zm301.5 134.7c-19.5 0-37.8-7.6-51.5-21.4-13.8-13.8-21.4-32.1-21.4-51.5 0-19.5 7.6-37.8 21.4-51.5 13.8-13.8 32.1-21.4 51.5-21.4 19.5 0 37.8 7.6 51.5 21.4 13.8 13.8 21.4 32.1 21.4 51.5 0 19.5-7.6 37.8-21.4 51.5-13.7 13.8-32 21.4-51.5 21.4zm57.3-6.3c1.6-1.4 3.2-2.9 4.8-4.4 1.5-1.5 3-3.2 4.4-4.8l14.2 14.2-9.2 9.2zm86 95.8-66-66 19.1-19.1 66 66z"></path><path d="m214.3 229.4h15v15h-15z"></path><path d="m146.7 229.4h52.6v15h-52.6z"></path><path d="m146.7 276.2h15v15h-15z"></path><path d="m176.7 276.2h52.6v15h-52.6z"></path><path d="m332.6 205.2v-15h-15v15h-17.6l-7.5 7.5v43.5l7.5 7.5h42.7v28.5h-35.2v-14.3h-15v21.8l7.5 7.5h17.6v15h15v-15h17.6l7.5-7.5v-43.5l-7.5-7.5h-42.7v-28.5h35.2v14.2h15v-21.7l-7.5-7.5z"></path><path d="m226.2 311.2h15v15h-15z"></path></g></svg>